# xmcd
#
# Track frame offsets:
#	150
#	23672
#	43784
#	67420
#	89364
#	107138
#	131433
#	156598
#	177346
#	205106
#	224439
#	252193
#	276788
#	301948
#	325031
#
# Disc length: 4595 seconds
#
# Revision: 0
# Processed by: cddbd v1.5.1PL2 Copyright (c) Steve Scherf et al.
# Submitted via: EasyCDDAExtractor 9.1.1.5
#
DISCID=dc11f10f
DTITLE=Tuan Ngoc - Tren bo moi dau yeu
DYEAR=1900
DGENRE=
TTITLE0=Phien da sau
TTITLE1=Roi em se nhu may
TTITLE2=Cho nguoi tinh lo
TTITLE3=Ban tinh cuoi
TTITLE4=Ai ve song tuong
TTITLE5=Thu quyen ru
TTITLE6=Doi da vang
TTITLE7=Tinh da vut bay
TTITLE8=Dem thay ta la thac do
TTITLE9=Tinh khuc buon
TTITLE10=Em oi! Ha Noi pho
TTITLE11=Em ve de lai mot niem dau
TTITLE12=Goi gio cho may ngan bay
TTITLE13=Tinh xua con nho
TTITLE14=Bao gio biet tuong tu
EXTD=
EXTT0=
EXTT1=
EXTT2=
EXTT3=
EXTT4=
EXTT5=
EXTT6=
EXTT7=
EXTT8=
EXTT9=
EXTT10=
EXTT11=
EXTT12=
EXTT13=
EXTT14=
PLAYORDER=
